<?xml version="1.0" encoding="utf-8"?>
<!-- Generator: Adobe Illustrator 22.0.0, SVG Export Plug-In . SVG Version: 6.00 Build 0)  -->
<svg version="1.1" xmlns="http://www.w3.org/2000/svg" xmlns:xlink="http://www.w3.org/1999/xlink" x="0px" y="0px"
	 viewBox="0 0 1920 1080" style="enable-background:new 0 0 1920 1080;" xml:space="preserve">
<style type="text/css">
	.st0{opacity:0.29;fill:#1FEC8E;stroke:#E3EC8E;}
	.st1{opacity:0.55;fill:#73506E;stroke:#E3EC8E;}
</style>
<g id="Capa_1">
	<g>
		<image style="overflow:visible;" width="1920" height="1080" xlink:href="AD7C566.png" >
		</image>
	</g>
</g>
<g id="Capa_2">
	<g>
		
			<image style="overflow:visible;" width="1920" height="1728" xlink:href="AD7C56A.png"  transform="matrix(0.625 0 0 0.625 360 4.291534e-05)">
		</image>
	</g>
</g>
<g id="Capa_3">
	<rect x="360" class="st0" width="1200" height="181"/>
	<rect x="360" y="181" class="st1" width="1200" height="68"/>
	
		<image style="overflow:visible;" width="640" height="604" xlink:href="metalyluz.png"  transform="matrix(0.1906 0 0 0.1906 1365.0118 165)">
	</image>
	<image style="overflow:visible;" width="500" height="400" xlink:href="rayos_de_luz.png"  transform="matrix(1 0 0 1 647 496.5)">
	</image>
	
		<image style="overflow:visible;" width="360" height="360" xlink:href="Cubo de color RGB.png"  transform="matrix(0.1444 0 0 0.1444 718 189)">
	</image>
</g>
<g id="Capa_4">
	
		<image style="overflow:visible;" width="601" height="400" xlink:href="efecto_de_by_koraazk-d6vrcz7.png"  transform="matrix(0.4459 0 0 0.4459 1288.0238 119.8232)">
	</image>
	
		<image style="overflow:visible;" width="400" height="405" xlink:href="COMBINACIÓN-COMPLEMENTARIA-VECINA-VERDE1.png"  transform="matrix(0.2525 0 0 0.2525 431 39.3688)">
	</image>
</g>
<g id="Capa_5">
</g>
</svg>
