<svg xmlns="http://www.w3.org/2000/svg" width="1920" height="1080"><path d="M-18,-149L189,-146L479,-154Z" fill="#ae5c0c" stroke="#ae5c0c" stroke-width="1.51"/><path d="M332,1211L-14,1230L537,1218Z" fill="#914448" stroke="#914448" stroke-width="1.51"/><path d="M537,1218L-14,1230L666,1228Z" fill="#965155" stroke="#965155" stroke-width="1.51"/><path d="M666,1228L-14,1230L852,1239Z" fill="#9a5c61" stroke="#9a5c61" stroke-width="1.51"/><path d="M748,-132L1066,-130L1303,-158Z" fill="#c4947a" stroke="#c4947a" stroke-width="1.51"/><path d="M479,-154L748,-132L1303,-158Z" fill="#c7926c" stroke="#c7926c" stroke-width="1.51"/><path d="M1362,1223L1053,1231L1642,1231Z" fill="#785e96" stroke="#785e96" stroke-width="1.51"/><path d="M1053,1231L852,1239L1642,1231Z" fill="#866d9d" stroke="#866d9d" stroke-width="1.51"/><path d="M1712,-151L1830,-135L2031,-115Z" fill="#7e3750" stroke="#7e3750" stroke-width="1.51"/><path d="M1830,-135L1951,-92L2031,-115Z" fill="#7a3048" stroke="#7a3048" stroke-width="1.51"/><path d="M1928,430L1930,579L2055,578Z" fill="#9f82b0" stroke="#9f82b0" stroke-width="1.51"/><path d="M2034,979L1967,1019L2057,1124Z" fill="#54307f" stroke="#54307f" stroke-width="1.51"/><path d="M2053,83L1980,242L2057,238Z" fill="#9a5359" stroke="#9a5359" stroke-width="1.51"/><path d="M1970,911L2034,979L2060,838Z" fill="#694d8f" stroke="#694d8f" stroke-width="1.51"/><path d="M2034,979L2057,1124L2060,838Z" fill="#5b3d81" stroke="#5b3d81" stroke-width="1.51"/><path d="M1928,430L2055,578L2073,415Z" fill="#9c7a9e" stroke="#9c7a9e" stroke-width="1.51"/><path d="M2055,578L2037,664L2074,727Z" fill="#8a71a1" stroke="#8a71a1" stroke-width="1.51"/><path d="M2060,838L2057,1124L2074,727Z" fill="#674b8a" stroke="#674b8a" stroke-width="1.51"/><path d="M2073,415L2055,578L2074,727Z" fill="#9277a3" stroke="#9277a3" stroke-width="1.51"/><path d="M1980,242L1944,323L2088,285Z" fill="#a26573" stroke="#a26573" stroke-width="1.51"/><path d="M1944,323L2073,415L2088,285Z" fill="#9e6b7d" stroke="#9e6b7d" stroke-width="1.51"/><path d="M2053,83L2057,238L2088,285Z" fill="#975357" stroke="#975357" stroke-width="1.51"/><path d="M2073,415L2074,727L2088,285Z" fill="#967596" stroke="#967596" stroke-width="1.51"/><path d="M2031,-115L1951,-92L2089,-36Z" fill="#762d3f" stroke="#762d3f" stroke-width="1.51"/><path d="M1951,-92L1917,-25L2089,-36Z" fill="#803344" stroke="#803344" stroke-width="1.51"/><path d="M1950,69L2053,83L2089,-36Z" fill="#893b45" stroke="#893b45" stroke-width="1.51"/><path d="M1917,-25L1950,69L2089,-36Z" fill="#893947" stroke="#893947" stroke-width="1.51"/><path d="M2053,83L2088,285L2089,-36Z" fill="#8f4143" stroke="#8f4143" stroke-width="1.51"/><path d="M2057,238L1980,242L2088,285Z" fill="#9e5e67" stroke="#9e5e67" stroke-width="1.51"/><path d="M1950,69L1980,242L2053,83Z" fill="#994c52" stroke="#994c52" stroke-width="1.51"/><path d="M1944,323L1928,430L2073,415Z" fill="#a27691" stroke="#a27691" stroke-width="1.51"/><path d="M1915,740L2060,838L2074,727Z" fill="#7f659f" stroke="#7f659f" stroke-width="1.51"/><path d="M2037,664L1915,740L2074,727Z" fill="#886fa5" stroke="#886fa5" stroke-width="1.51"/><path d="M1930,579L2037,664L2055,578Z" fill="#947aab" stroke="#947aab" stroke-width="1.51"/><path d="M1967,1019L1920,1069L2057,1124Z" fill="#532b80" stroke="#532b80" stroke-width="1.51"/><path d="M1944,1212L2053,1181L2057,1124Z" fill="#401369" stroke="#401369" stroke-width="1.51"/><path d="M1915,740L1970,911L2060,838Z" fill="#7b5f9e" stroke="#7b5f9e" stroke-width="1.51"/><path d="M1915,740L1873,832L1970,911Z" fill="#8165a8" stroke="#8165a8" stroke-width="1.51"/><path d="M1920,1069L1944,1212L2057,1124Z" fill="#491d77" stroke="#491d77" stroke-width="1.51"/><path d="M1950,69L1876,108L1980,242Z" fill="#a1525b" stroke="#a1525b" stroke-width="1.51"/><path d="M1930,579L1916,648L2037,664Z" fill="#967cb0" stroke="#967cb0" stroke-width="1.51"/><path d="M1916,648L1915,740L2037,664Z" fill="#9178af" stroke="#9178af" stroke-width="1.51"/><path d="M1970,911L1967,1019L2034,979Z" fill="#62458b" stroke="#62458b" stroke-width="1.51"/><path d="M1928,430L1854,448L1930,579Z" fill="#a885b1" stroke="#a885b1" stroke-width="1.51"/><path d="M1920,1069L1831,1111L1944,1212Z" fill="#502482" stroke="#502482" stroke-width="1.51"/><path d="M1823,970L1967,1019L1970,911Z" fill="#684b95" stroke="#684b95" stroke-width="1.51"/><path d="M1802,234L1880,314L1980,242Z" fill="#ae6d7e" stroke="#ae6d7e" stroke-width="1.51"/><path d="M1876,108L1802,234L1980,242Z" fill="#ab616e" stroke="#ab616e" stroke-width="1.51"/><path d="M1880,314L1944,323L1980,242Z" fill="#a96d7f" stroke="#a96d7f" stroke-width="1.51"/><path d="M1823,970L1920,1069L1967,1019Z" fill="#613f91" stroke="#613f91" stroke-width="1.51"/><path d="M1873,832L1823,970L1970,911Z" fill="#7659a2" stroke="#7659a2" stroke-width="1.51"/><path d="M1880,314L1928,430L1944,323Z" fill="#aa7791" stroke="#aa7791" stroke-width="1.51"/><path d="M1854,448L1798,523L1930,579Z" fill="#aa8dbc" stroke="#aa8dbc" stroke-width="1.51"/><path d="M1831,1111L1826,1233L1944,1212Z" fill="#4c2079" stroke="#4c2079" stroke-width="1.51"/><path d="M1917,-25L1876,108L1950,69Z" fill="#984654" stroke="#984654" stroke-width="1.51"/><path d="M1830,-135L1917,-25L1951,-92Z" fill="#83364e" stroke="#83364e" stroke-width="1.51"/><path d="M1830,-135L1821,-46L1917,-25Z" fill="#8a3e52" stroke="#8a3e52" stroke-width="1.51"/><path d="M1851,673L1915,740L1916,648Z" fill="#967db7" stroke="#967db7" stroke-width="1.51"/><path d="M1880,314L1854,448L1928,430Z" fill="#ac80a1" stroke="#ac80a1" stroke-width="1.51"/><path d="M1826,770L1873,832L1915,740Z" fill="#8c72b2" stroke="#8c72b2" stroke-width="1.51"/><path d="M1821,-46L1876,108L1917,-25Z" fill="#974656" stroke="#974656" stroke-width="1.51"/><path d="M1851,673L1916,648L1930,579Z" fill="#9c81b9" stroke="#9c81b9" stroke-width="1.51"/><path d="M1798,523L1851,673L1930,579Z" fill="#a48bbf" stroke="#a48bbf" stroke-width="1.51"/><path d="M1823,970L1831,1111L1920,1069Z" fill="#613d92" stroke="#613d92" stroke-width="1.51"/><path d="M1798,523L1760,567L1851,673Z" fill="#a994c4" stroke="#a994c4" stroke-width="1.51"/><path d="M1851,673L1826,770L1915,740Z" fill="#937bb7" stroke="#937bb7" stroke-width="1.51"/><path d="M1760,567L1756,635L1851,673Z" fill="#a694c3" stroke="#a694c3" stroke-width="1.51"/><path d="M1713,870L1823,970L1873,832Z" fill="#8069ab" stroke="#8069ab" stroke-width="1.51"/><path d="M1750,184L1802,234L1876,108Z" fill="#b16a6f" stroke="#b16a6f" stroke-width="1.51"/><path d="M1734,124L1750,184L1876,108Z" fill="#b06868" stroke="#b06868" stroke-width="1.51"/><path d="M1821,-46L1760,-12L1876,108Z" fill="#9c4f59" stroke="#9c4f59" stroke-width="1.51"/><path d="M1760,-12L1734,124L1876,108Z" fill="#a85d5f" stroke="#a85d5f" stroke-width="1.51"/><path d="M1734,402L1854,448L1880,314Z" fill="#b289a4" stroke="#b289a4" stroke-width="1.51"/><path d="M1767,283L1734,402L1880,314Z" fill="#b68697" stroke="#b68697" stroke-width="1.51"/><path d="M1802,234L1767,283L1880,314Z" fill="#b67b86" stroke="#b67b86" stroke-width="1.51"/><path d="M1826,770L1713,870L1873,832Z" fill="#8c76b3" stroke="#8c76b3" stroke-width="1.51"/><path d="M1715,1196L1642,1231L1826,1233Z" fill="#55337c" stroke="#55337c" stroke-width="1.51"/><path d="M1756,635L1704,734L1826,770Z" fill="#9e8ec0" stroke="#9e8ec0" stroke-width="1.51"/><path d="M1823,970L1704,1069L1831,1111Z" fill="#684997" stroke="#684997" stroke-width="1.51"/><path d="M1715,1196L1826,1233L1831,1111Z" fill="#542e80" stroke="#542e80" stroke-width="1.51"/><path d="M1756,635L1826,770L1851,673Z" fill="#9d89be" stroke="#9d89be" stroke-width="1.51"/><path d="M1734,402L1798,523L1854,448Z" fill="#b294b5" stroke="#b294b5" stroke-width="1.51"/><path d="M1537,-155L1652,-135L1712,-151Z" fill="#915c5d" stroke="#915c5d" stroke-width="1.51"/><path d="M1712,-151L1760,-12L1821,-46Z" fill="#934e58" stroke="#934e58" stroke-width="1.51"/><path d="M1713,870L1692,951L1823,970Z" fill="#7f6caa" stroke="#7f6caa" stroke-width="1.51"/><path d="M1704,734L1713,870L1826,770Z" fill="#9584ba" stroke="#9584ba" stroke-width="1.51"/><path d="M1712,-151L1821,-46L1830,-135Z" fill="#894655" stroke="#894655" stroke-width="1.51"/><path d="M1704,1069L1715,1196L1831,1111Z" fill="#603c8f" stroke="#603c8f" stroke-width="1.51"/><path d="M1692,951L1704,1069L1823,970Z" fill="#745ea2" stroke="#745ea2" stroke-width="1.51"/><path d="M1734,402L1760,567L1798,523Z" fill="#b49cbf" stroke="#b49cbf" stroke-width="1.51"/><path d="M1750,184L1767,283L1802,234Z" fill="#b87b7e" stroke="#b87b7e" stroke-width="1.51"/><path d="M1549,1195L1362,1223L1642,1231Z" fill="#6a4e8d" stroke="#6a4e8d" stroke-width="1.51"/><path d="M1583,464L1593,522L1734,402Z" fill="#c1afc2" stroke="#c1afc2" stroke-width="1.51"/><path d="M1734,402L1593,522L1760,567Z" fill="#b9a8c4" stroke="#b9a8c4" stroke-width="1.51"/><path d="M1712,-151L1652,-135L1760,-12Z" fill="#93555a" stroke="#93555a" stroke-width="1.51"/><path d="M1618,80L1734,124L1760,-12Z" fill="#af6a64" stroke="#af6a64" stroke-width="1.51"/><path d="M1590,286L1734,402L1767,283Z" fill="#bf969b" stroke="#bf969b" stroke-width="1.51"/><path d="M1637,220L1590,286L1767,283Z" fill="#c3938c" stroke="#c3938c" stroke-width="1.51"/><path d="M1750,184L1637,220L1767,283Z" fill="#bd8481" stroke="#bd8481" stroke-width="1.51"/><path d="M1704,734L1645,850L1713,870Z" fill="#978abd" stroke="#978abd" stroke-width="1.51"/><path d="M1606,668L1704,734L1756,635Z" fill="#a99fc8" stroke="#a99fc8" stroke-width="1.51"/><path d="M1606,668L1756,635L1760,567Z" fill="#ada1ca" stroke="#ada1ca" stroke-width="1.51"/><path d="M1593,522L1606,668L1760,567Z" fill="#b6afcf" stroke="#b6afcf" stroke-width="1.51"/><path d="M1652,-135L1586,23L1760,-12Z" fill="#a2625f" stroke="#a2625f" stroke-width="1.51"/><path d="M1586,23L1618,80L1760,-12Z" fill="#ae6d65" stroke="#ae6d65" stroke-width="1.51"/><path d="M1704,1069L1615,1120L1715,1196Z" fill="#664894" stroke="#664894" stroke-width="1.51"/><path d="M1734,124L1637,220L1750,184Z" fill="#ba7c76" stroke="#ba7c76" stroke-width="1.51"/><path d="M1590,286L1583,464L1734,402Z" fill="#c3a8b0" stroke="#c3a8b0" stroke-width="1.51"/><path d="M1618,80L1637,220L1734,124Z" fill="#bc7d70" stroke="#bc7d70" stroke-width="1.51"/><path d="M1645,850L1620,945L1692,951Z" fill="#897db3" stroke="#897db3" stroke-width="1.51"/><path d="M1692,951L1620,945L1704,1069Z" fill="#7c6ba8" stroke="#7c6ba8" stroke-width="1.51"/><path d="M1605,754L1645,850L1704,734Z" fill="#9f96c3" stroke="#9f96c3" stroke-width="1.51"/><path d="M1645,850L1692,951L1713,870Z" fill="#8b7db4" stroke="#8b7db4" stroke-width="1.51"/><path d="M1615,1120L1642,1231L1715,1196Z" fill="#60448a" stroke="#60448a" stroke-width="1.51"/><path d="M1537,1000L1615,1120L1620,945Z" fill="#7f6caa" stroke="#7f6caa" stroke-width="1.51"/><path d="M1620,945L1615,1120L1704,1069Z" fill="#7660a3" stroke="#7660a3" stroke-width="1.51"/><path d="M1606,668L1605,754L1704,734Z" fill="#a9a1c9" stroke="#a9a1c9" stroke-width="1.51"/><path d="M1506,347L1583,464L1590,286Z" fill="#ccafb1" stroke="#ccafb1" stroke-width="1.51"/><path d="M1618,80L1545,101L1637,220Z" fill="#c28573" stroke="#c28573" stroke-width="1.51"/><path d="M1615,1120L1549,1195L1642,1231Z" fill="#674a8e" stroke="#674a8e" stroke-width="1.51"/><path d="M1501,907L1620,945L1645,850Z" fill="#9387ba" stroke="#9387ba" stroke-width="1.51"/><path d="M1537,-155L1586,23L1652,-135Z" fill="#a16663" stroke="#a16663" stroke-width="1.51"/><path d="M1537,-155L1488,-2L1586,23Z" fill="#af7268" stroke="#af7268" stroke-width="1.51"/><path d="M1545,101L1529,251L1637,220Z" fill="#ca9383" stroke="#ca9383" stroke-width="1.51"/><path d="M1605,754L1501,907L1645,850Z" fill="#9e95c3" stroke="#9e95c3" stroke-width="1.51"/><path d="M1303,-158L1359,-132L1537,-155Z" fill="#a9766d" stroke="#a9766d" stroke-width="1.51"/><path d="M1593,522L1496,666L1606,668Z" fill="#bcb6d5" stroke="#bcb6d5" stroke-width="1.51"/><path d="M1529,251L1590,286L1637,220Z" fill="#cc9c90" stroke="#cc9c90" stroke-width="1.51"/><path d="M1506,347L1513,460L1583,464Z" fill="#cdb8c1" stroke="#cdb8c1" stroke-width="1.51"/><path d="M1488,531L1496,666L1593,522Z" fill="#c5bfda" stroke="#c5bfda" stroke-width="1.51"/><path d="M1478,743L1501,907L1605,754Z" fill="#aaa2cb" stroke="#aaa2cb" stroke-width="1.51"/><path d="M1496,666L1605,754L1606,668Z" fill="#b3aed1" stroke="#b3aed1" stroke-width="1.51"/><path d="M1537,1000L1496,1097L1615,1120Z" fill="#7c64a7" stroke="#7c64a7" stroke-width="1.51"/><path d="M1501,907L1537,1000L1620,945Z" fill="#8e82b6" stroke="#8e82b6" stroke-width="1.51"/><path d="M1586,23L1545,101L1618,80Z" fill="#bb7c6c" stroke="#bb7c6c" stroke-width="1.51"/><path d="M1496,1097L1549,1195L1615,1120Z" fill="#72569c" stroke="#72569c" stroke-width="1.51"/><path d="M1496,666L1478,743L1605,754Z" fill="#b4afd2" stroke="#b4afd2" stroke-width="1.51"/><path d="M1529,251L1506,347L1590,286Z" fill="#d0a89f" stroke="#d0a89f" stroke-width="1.51"/><path d="M1583,464L1513,460L1593,522Z" fill="#c7bacc" stroke="#c7bacc" stroke-width="1.51"/><path d="M1513,460L1488,531L1593,522Z" fill="#cabfd4" stroke="#cabfd4" stroke-width="1.51"/><path d="M1280,1199L1053,1231L1362,1223Z" fill="#846b9e" stroke="#846b9e" stroke-width="1.51"/><path d="M1488,-2L1545,101L1586,23Z" fill="#bc7d6e" stroke="#bc7d6e" stroke-width="1.51"/><path d="M1478,743L1412,772L1501,907Z" fill="#b0a9d0" stroke="#b0a9d0" stroke-width="1.51"/><path d="M1412,772L1395,863L1501,907Z" fill="#aca5ce" stroke="#aca5ce" stroke-width="1.51"/><path d="M1393,-36L1488,-2L1537,-155Z" fill="#b2776c" stroke="#b2776c" stroke-width="1.51"/><path d="M1488,-2L1405,118L1545,101Z" fill="#c88a74" stroke="#c88a74" stroke-width="1.51"/><path d="M1436,242L1529,251L1545,101Z" fill="#d19c89" stroke="#d19c89" stroke-width="1.51"/><path d="M1405,118L1436,242L1545,101Z" fill="#d29982" stroke="#d29982" stroke-width="1.51"/><path d="M1496,1097L1427,1121L1549,1195Z" fill="#795da2" stroke="#795da2" stroke-width="1.51"/><path d="M1427,1121L1362,1223L1549,1195Z" fill="#785c9b" stroke="#785c9b" stroke-width="1.51"/><path d="M1428,299L1506,347L1529,251Z" fill="#d6afa4" stroke="#d6afa4" stroke-width="1.51"/><path d="M1359,-132L1393,-36L1537,-155Z" fill="#ae776e" stroke="#ae776e" stroke-width="1.51"/><path d="M1501,907L1382,977L1537,1000Z" fill="#958abb" stroke="#958abb" stroke-width="1.51"/><path d="M1382,977L1496,1097L1537,1000Z" fill="#8c7ab4" stroke="#8c7ab4" stroke-width="1.51"/><path d="M1506,347L1384,431L1513,460Z" fill="#d5c0c4" stroke="#d5c0c4" stroke-width="1.51"/><path d="M1436,242L1428,299L1529,251Z" fill="#d9ad9c" stroke="#d9ad9c" stroke-width="1.51"/><path d="M1156,1195L1053,1231L1280,1199Z" fill="#8a71a3" stroke="#8a71a3" stroke-width="1.51"/><path d="M1378,538L1375,635L1488,531Z" fill="#d2cee4" stroke="#d2cee4" stroke-width="1.51"/><path d="M1488,531L1375,635L1496,666Z" fill="#c9c5df" stroke="#c9c5df" stroke-width="1.51"/><path d="M1382,977L1427,1121L1496,1097Z" fill="#8a73b2" stroke="#8a73b2" stroke-width="1.51"/><path d="M1384,431L1488,531L1513,460Z" fill="#d3c6d2" stroke="#d3c6d2" stroke-width="1.51"/><path d="M1428,299L1384,431L1506,347Z" fill="#d9bdb9" stroke="#d9bdb9" stroke-width="1.51"/><path d="M1384,431L1378,538L1488,531Z" fill="#d7cddc" stroke="#d7cddc" stroke-width="1.51"/><path d="M1395,863L1382,977L1501,907Z" fill="#a298c5" stroke="#a298c5" stroke-width="1.51"/><path d="M1393,-36L1405,118L1488,-2Z" fill="#c68974" stroke="#c68974" stroke-width="1.51"/><path d="M1375,635L1478,743L1496,666Z" fill="#c2bfdc" stroke="#c2bfdc" stroke-width="1.51"/><path d="M1375,635L1412,772L1478,743Z" fill="#c0bddb" stroke="#c0bddb" stroke-width="1.51"/><path d="M1393,-36L1328,85L1405,118Z" fill="#cf9379" stroke="#cf9379" stroke-width="1.51"/><path d="M1375,635L1285,686L1412,772Z" fill="#c8c6e0" stroke="#c8c6e0" stroke-width="1.51"/><path d="M1382,977L1328,1108L1427,1121Z" fill="#8e78b5" stroke="#8e78b5" stroke-width="1.51"/><path d="M1328,1108L1362,1223L1427,1121Z" fill="#8367a6" stroke="#8367a6" stroke-width="1.51"/><path d="M1279,296L1384,431L1428,299Z" fill="#e1c4b8" stroke="#e1c4b8" stroke-width="1.51"/><path d="M1295,242L1428,299L1436,242Z" fill="#e1b6a0" stroke="#e1b6a0" stroke-width="1.51"/><path d="M1405,118L1295,242L1436,242Z" fill="#deac92" stroke="#deac92" stroke-width="1.51"/><path d="M1285,686L1304,774L1412,772Z" fill="#c5c1de" stroke="#c5c1de" stroke-width="1.51"/><path d="M1295,242L1279,296L1428,299Z" fill="#e4bea8" stroke="#e4bea8" stroke-width="1.51"/><path d="M1279,296L1304,445L1384,431Z" fill="#e2cec8" stroke="#e2cec8" stroke-width="1.51"/><path d="M1320,524L1378,538L1384,431Z" fill="#dbd3df" stroke="#dbd3df" stroke-width="1.51"/><path d="M1273,21L1328,85L1393,-36Z" fill="#ce9279" stroke="#ce9279" stroke-width="1.51"/><path d="M1293,880L1382,977L1395,863Z" fill="#a9a1ca" stroke="#a9a1ca" stroke-width="1.51"/><path d="M1328,85L1295,242L1405,118Z" fill="#dda587" stroke="#dda587" stroke-width="1.51"/><path d="M1304,774L1395,863L1412,772Z" fill="#b9b3d7" stroke="#b9b3d7" stroke-width="1.51"/><path d="M961,1223L852,1239L1053,1231Z" fill="#947aa3" stroke="#947aa3" stroke-width="1.51"/><path d="M1304,445L1320,524L1384,431Z" fill="#dfd3d9" stroke="#dfd3d9" stroke-width="1.51"/><path d="M1320,524L1375,635L1378,538Z" fill="#d7d5e7" stroke="#d7d5e7" stroke-width="1.51"/><path d="M1272,979L1328,1108L1382,977Z" fill="#9a8abd" stroke="#9a8abd" stroke-width="1.51"/><path d="M1359,-132L1273,21L1393,-36Z" fill="#c18774" stroke="#c18774" stroke-width="1.51"/><path d="M1304,774L1293,880L1395,863Z" fill="#b7b1d5" stroke="#b7b1d5" stroke-width="1.51"/><path d="M1328,1108L1280,1199L1362,1223Z" fill="#8368a3" stroke="#8368a3" stroke-width="1.51"/><path d="M1293,880L1272,979L1382,977Z" fill="#a59dc7" stroke="#a59dc7" stroke-width="1.51"/><path d="M1303,-158L1217,-24L1359,-132Z" fill="#ba8574" stroke="#ba8574" stroke-width="1.51"/><path d="M1217,-24L1273,21L1359,-132Z" fill="#c78d77" stroke="#c78d77" stroke-width="1.51"/><path d="M1320,524L1285,686L1375,635Z" fill="#d4d3e7" stroke="#d4d3e7" stroke-width="1.51"/><path d="M1196,133L1295,242L1328,85Z" fill="#e3ad8c" stroke="#e3ad8c" stroke-width="1.51"/><path d="M1195,-80L1217,-24L1303,-158Z" fill="#c18d77" stroke="#c18d77" stroke-width="1.51"/><path d="M1148,506L1142,677L1285,686Z" fill="#dfe0ee" stroke="#dfe0ee" stroke-width="1.51"/><path d="M1196,133L1206,222L1295,242Z" fill="#eaba99" stroke="#eaba99" stroke-width="1.51"/><path d="M1279,296L1194,325L1304,445Z" fill="#e9d0c1" stroke="#e9d0c1" stroke-width="1.51"/><path d="M1194,325L1166,392L1304,445Z" fill="#ead8cc" stroke="#ead8cc" stroke-width="1.51"/><path d="M1148,506L1285,686L1320,524Z" fill="#dfdfec" stroke="#dfdfec" stroke-width="1.51"/><path d="M1273,21L1196,133L1328,85Z" fill="#dca180" stroke="#dca180" stroke-width="1.51"/><path d="M1165,1114L1280,1199L1328,1108Z" fill="#8e73af" stroke="#8e73af" stroke-width="1.51"/><path d="M1272,979L1165,1114L1328,1108Z" fill="#9984bb" stroke="#9984bb" stroke-width="1.51"/><path d="M1219,877L1293,880L1304,774Z" fill="#bbb6d7" stroke="#bbb6d7" stroke-width="1.51"/><path d="M1304,445L1148,506L1320,524Z" fill="#e4dde3" stroke="#e4dde3" stroke-width="1.51"/><path d="M1212,954L1272,979L1293,880Z" fill="#aca5cc" stroke="#aca5cc" stroke-width="1.51"/><path d="M1219,877L1212,954L1293,880Z" fill="#b3add1" stroke="#b3add1" stroke-width="1.51"/><path d="M1066,-130L1195,-80L1303,-158Z" fill="#bf8d78" stroke="#bf8d78" stroke-width="1.51"/><path d="M1166,392L1148,506L1304,445Z" fill="#eadfdb" stroke="#eadfdb" stroke-width="1.51"/><path d="M1285,686L1173,730L1304,774Z" fill="#cdcbe4" stroke="#cdcbe4" stroke-width="1.51"/><path d="M1173,730L1219,877L1304,774Z" fill="#c6c3df" stroke="#c6c3df" stroke-width="1.51"/><path d="M1212,954L1165,1114L1272,979Z" fill="#a496c4" stroke="#a496c4" stroke-width="1.51"/><path d="M1206,222L1279,296L1295,242Z" fill="#ebc2a5" stroke="#ebc2a5" stroke-width="1.51"/><path d="M1165,1114L1156,1195L1280,1199Z" fill="#8e75ab" stroke="#8e75ab" stroke-width="1.51"/><path d="M1142,677L1173,730L1285,686Z" fill="#d5d6e9" stroke="#d5d6e9" stroke-width="1.51"/><path d="M1217,-24L1196,133L1273,21Z" fill="#da9f7f" stroke="#da9f7f" stroke-width="1.51"/><path d="M1206,222L1194,325L1279,296Z" fill="#edc9ae" stroke="#edc9ae" stroke-width="1.51"/><path d="M1089,572L1142,677L1148,506Z" fill="#e7e8f1" stroke="#e7e8f1" stroke-width="1.51"/><path d="M1103,976L1094,1080L1165,1114Z" fill="#a491c2" stroke="#a491c2" stroke-width="1.51"/><path d="M1074,-3L1049,68L1196,133Z" fill="#e5ac84" stroke="#e5ac84" stroke-width="1.51"/><path d="M1103,976L1165,1114L1212,954Z" fill="#a89ac7" stroke="#a89ac7" stroke-width="1.51"/><path d="M1074,-3L1196,133L1217,-24Z" fill="#dda480" stroke="#dda480" stroke-width="1.51"/><path d="M1173,730L1085,744L1219,877Z" fill="#cccbe3" stroke="#cccbe3" stroke-width="1.51"/><path d="M1085,744L1059,867L1219,877Z" fill="#c9c6e0" stroke="#c9c6e0" stroke-width="1.51"/><path d="M1103,976L1212,954L1219,877Z" fill="#b3add0" stroke="#b3add0" stroke-width="1.51"/><path d="M1059,867L1103,976L1219,877Z" fill="#bbb6d5" stroke="#bbb6d5" stroke-width="1.51"/><path d="M1195,-80L1074,-3L1217,-24Z" fill="#d2997c" stroke="#d2997c" stroke-width="1.51"/><path d="M1048,319L1194,325L1206,222Z" fill="#f3d0b2" stroke="#f3d0b2" stroke-width="1.51"/><path d="M1031,233L1048,319L1206,222Z" fill="#f7cfab" stroke="#f7cfab" stroke-width="1.51"/><path d="M1196,133L1031,233L1206,222Z" fill="#f0c19a" stroke="#f0c19a" stroke-width="1.51"/><path d="M1091,448L1148,506L1166,392Z" fill="#efe4de" stroke="#efe4de" stroke-width="1.51"/><path d="M1049,68L1031,233L1196,133Z" fill="#efba8f" stroke="#efba8f" stroke-width="1.51"/><path d="M1066,-130L1074,-3L1195,-80Z" fill="#ce987b" stroke="#ce987b" stroke-width="1.51"/><path d="M1048,319L1166,392L1194,325Z" fill="#f2d9c3" stroke="#f2d9c3" stroke-width="1.51"/><path d="M748,-132L935,-82L1066,-130Z" fill="#ce9a77" stroke="#ce9a77" stroke-width="1.51"/><path d="M1094,1080L1156,1195L1165,1114Z" fill="#987fb7" stroke="#987fb7" stroke-width="1.51"/><path d="M1142,677L1085,744L1173,730Z" fill="#d7d8ea" stroke="#d7d8ea" stroke-width="1.51"/><path d="M1089,572L1062,654L1142,677Z" fill="#e4e5f0" stroke="#e4e5f0" stroke-width="1.51"/><path d="M1048,319L1091,448L1166,392Z" fill="#f3e1d0" stroke="#f3e1d0" stroke-width="1.51"/><path d="M748,-132L823,-93L935,-82Z" fill="#d0976d" stroke="#d0976d" stroke-width="1.51"/><path d="M1094,1080L1053,1231L1156,1195Z" fill="#957bae" stroke="#957bae" stroke-width="1.51"/><path d="M1091,448L1089,572L1148,506Z" fill="#eeebec" stroke="#eeebec" stroke-width="1.51"/><path d="M1062,654L1085,744L1142,677Z" fill="#dddeed" stroke="#dddeed" stroke-width="1.51"/><path d="M1066,-130L965,-14L1074,-3Z" fill="#d79f7e" stroke="#d79f7e" stroke-width="1.51"/><path d="M986,730L1059,867L1085,744Z" fill="#d5d3e7" stroke="#d5d3e7" stroke-width="1.51"/><path d="M1048,319L973,396L1091,448Z" fill="#f7e5d2" stroke="#f7e5d2" stroke-width="1.51"/><path d="M971,503L1089,572L1091,448Z" fill="#f2efed" stroke="#f2efed" stroke-width="1.51"/><path d="M950,1100L1053,1231L1094,1080Z" fill="#9e84b7" stroke="#9e84b7" stroke-width="1.51"/><path d="M972,945L950,1100L1094,1080Z" fill="#ae9cc7" stroke="#ae9cc7" stroke-width="1.51"/><path d="M972,945L1094,1080L1103,976Z" fill="#b0a5cb" stroke="#b0a5cb" stroke-width="1.51"/><path d="M1059,867L972,945L1103,976Z" fill="#bdb6d4" stroke="#bdb6d4" stroke-width="1.51"/><path d="M963,72L1031,233L1049,68Z" fill="#f3bb8c" stroke="#f3bb8c" stroke-width="1.51"/><path d="M950,1100L961,1223L1053,1231Z" fill="#997fae" stroke="#997fae" stroke-width="1.51"/><path d="M1062,654L986,730L1085,744Z" fill="#dedeed" stroke="#dedeed" stroke-width="1.51"/><path d="M957,610L1062,654L1089,572Z" fill="#eaeaf2" stroke="#eaeaf2" stroke-width="1.51"/><path d="M973,396L971,503L1091,448Z" fill="#f7ece1" stroke="#f7ece1" stroke-width="1.51"/><path d="M971,503L957,610L1089,572Z" fill="#f2f2f5" stroke="#f2f2f5" stroke-width="1.51"/><path d="M935,-82L965,-14L1066,-130Z" fill="#d49f7e" stroke="#d49f7e" stroke-width="1.51"/><path d="M479,-154L658,-120L748,-132Z" fill="#c7864d" stroke="#c7864d" stroke-width="1.51"/><path d="M986,730L928,868L1059,867Z" fill="#d3cfe4" stroke="#d3cfe4" stroke-width="1.51"/><path d="M965,-14L1049,68L1074,-3Z" fill="#e2a982" stroke="#e2a982" stroke-width="1.51"/><path d="M963,72L922,220L1031,233Z" fill="#f9c799" stroke="#f9c799" stroke-width="1.51"/><path d="M965,-14L963,72L1049,68Z" fill="#e8af84" stroke="#e8af84" stroke-width="1.51"/><path d="M957,610L986,730L1062,654Z" fill="#e7e8f1" stroke="#e7e8f1" stroke-width="1.51"/><path d="M1031,233L951,295L1048,319Z" fill="#fcd8b4" stroke="#fcd8b4" stroke-width="1.51"/><path d="M928,868L972,945L1059,867Z" fill="#c6c1db" stroke="#c6c1db" stroke-width="1.51"/><path d="M951,295L973,396L1048,319Z" fill="#fce1c4" stroke="#fce1c4" stroke-width="1.51"/><path d="M922,220L951,295L1031,233Z" fill="#ffd6ac" stroke="#ffd6ac" stroke-width="1.51"/><path d="M950,1100L866,1105L961,1223Z" fill="#a385b3" stroke="#a385b3" stroke-width="1.51"/><path d="M887,200L922,220L963,72Z" fill="#f9c492" stroke="#f9c492" stroke-width="1.51"/><path d="M881,982L950,1100L972,945Z" fill="#b6a6c9" stroke="#b6a6c9" stroke-width="1.51"/><path d="M951,295L883,352L973,396Z" fill="#fee3c4" stroke="#fee3c4" stroke-width="1.51"/><path d="M859,446L971,503L973,396Z" fill="#fbeede" stroke="#fbeede" stroke-width="1.51"/><path d="M870,774L928,868L986,730Z" fill="#dad5e3" stroke="#dad5e3" stroke-width="1.51"/><path d="M957,610L868,662L986,730Z" fill="#eae9ee" stroke="#eae9ee" stroke-width="1.51"/><path d="M868,662L870,774L986,730Z" fill="#e4dfe6" stroke="#e4dfe6" stroke-width="1.51"/><path d="M881,982L866,1105L950,1100Z" fill="#b096be" stroke="#b096be" stroke-width="1.51"/><path d="M866,1105L852,1239L961,1223Z" fill="#9d7da4" stroke="#9d7da4" stroke-width="1.51"/><path d="M824,100L887,200L963,72Z" fill="#f6bb84" stroke="#f6bb84" stroke-width="1.51"/><path d="M869,-22L963,72L965,-14Z" fill="#e6ab7f" stroke="#e6ab7f" stroke-width="1.51"/><path d="M831,517L957,610L971,503Z" fill="#f8f4f1" stroke="#f8f4f1" stroke-width="1.51"/><path d="M928,868L881,982L972,945Z" fill="#c3b9d2" stroke="#c3b9d2" stroke-width="1.51"/><path d="M883,352L859,446L973,396Z" fill="#fde8ce" stroke="#fde8ce" stroke-width="1.51"/><path d="M859,446L831,517L971,503Z" fill="#fbf0e1" stroke="#fbf0e1" stroke-width="1.51"/><path d="M869,-22L824,100L963,72Z" fill="#ebae7c" stroke="#ebae7c" stroke-width="1.51"/><path d="M935,-82L869,-22L965,-14Z" fill="#dda37b" stroke="#dda37b" stroke-width="1.51"/><path d="M831,517L868,662L957,610Z" fill="#f3edea" stroke="#f3edea" stroke-width="1.51"/><path d="M848,872L881,982L928,868Z" fill="#c8bccf" stroke="#c8bccf" stroke-width="1.51"/><path d="M922,220L883,352L951,295Z" fill="#ffdab1" stroke="#ffdab1" stroke-width="1.51"/><path d="M781,248L883,352L887,200Z" fill="#ffd4a1" stroke="#ffd4a1" stroke-width="1.51"/><path d="M887,200L883,352L922,220Z" fill="#ffd5a5" stroke="#ffd5a5" stroke-width="1.51"/><path d="M870,774L848,872L928,868Z" fill="#d4cad8" stroke="#d4cad8" stroke-width="1.51"/><path d="M823,-93L869,-22L935,-82Z" fill="#d79e74" stroke="#d79e74" stroke-width="1.51"/><path d="M748,1183L852,1239L866,1105Z" fill="#a07b9e" stroke="#a07b9e" stroke-width="1.51"/><path d="M831,517L756,689L868,662Z" fill="#f1e7e0" stroke="#f1e7e0" stroke-width="1.51"/><path d="M868,662L756,689L870,774Z" fill="#e7dedd" stroke="#e7dedd" stroke-width="1.51"/><path d="M848,872L758,879L881,982Z" fill="#c9b8c7" stroke="#c9b8c7" stroke-width="1.51"/><path d="M732,1087L866,1105L881,982Z" fill="#b294b5" stroke="#b294b5" stroke-width="1.51"/><path d="M713,1018L732,1087L881,982Z" fill="#b89ab1" stroke="#b89ab1" stroke-width="1.51"/><path d="M723,440L859,446L883,352Z" fill="#fde5c6" stroke="#fde5c6" stroke-width="1.51"/><path d="M824,100L781,248L887,200Z" fill="#fac389" stroke="#fac389" stroke-width="1.51"/><path d="M755,514L756,689L831,517Z" fill="#f7eadc" stroke="#f7eadc" stroke-width="1.51"/><path d="M781,248L716,310L883,352Z" fill="#ffd6a4" stroke="#ffd6a4" stroke-width="1.51"/><path d="M716,310L723,440L883,352Z" fill="#fedeb4" stroke="#fedeb4" stroke-width="1.51"/><path d="M745,-35L824,100L869,-22Z" fill="#e5a56f" stroke="#e5a56f" stroke-width="1.51"/><path d="M758,879L713,1018L881,982Z" fill="#c1acba" stroke="#c1acba" stroke-width="1.51"/><path d="M745,-35L739,76L824,100Z" fill="#eaa96c" stroke="#eaa96c" stroke-width="1.51"/><path d="M758,879L848,872L870,774Z" fill="#d5c7d0" stroke="#d5c7d0" stroke-width="1.51"/><path d="M716,777L758,879L870,774Z" fill="#dbcace" stroke="#dbcace" stroke-width="1.51"/><path d="M756,689L716,777L870,774Z" fill="#e3d5d2" stroke="#e3d5d2" stroke-width="1.51"/><path d="M823,-93L745,-35L869,-22Z" fill="#da9c6c" stroke="#da9c6c" stroke-width="1.51"/><path d="M732,1087L748,1183L866,1105Z" fill="#a980a5" stroke="#a980a5" stroke-width="1.51"/><path d="M748,1183L666,1228L852,1239Z" fill="#9b728d" stroke="#9b728d" stroke-width="1.51"/><path d="M755,514L831,517L859,446Z" fill="#fbebd7" stroke="#fbebd7" stroke-width="1.51"/><path d="M723,440L755,514L859,446Z" fill="#fde8cd" stroke="#fde8cd" stroke-width="1.51"/><path d="M739,76L781,248L824,100Z" fill="#f7b979" stroke="#f7b979" stroke-width="1.51"/><path d="M748,-132L745,-35L823,-93Z" fill="#d29765" stroke="#d29765" stroke-width="1.51"/><path d="M716,310L669,407L723,440Z" fill="#ffdcae" stroke="#ffdcae" stroke-width="1.51"/><path d="M755,514L639,639L756,689Z" fill="#f4e3d2" stroke="#f4e3d2" stroke-width="1.51"/><path d="M739,76L620,214L781,248Z" fill="#f9bc78" stroke="#f9bc78" stroke-width="1.51"/><path d="M620,214L716,310L781,248Z" fill="#ffca8a" stroke="#ffca8a" stroke-width="1.51"/><path d="M665,855L615,1001L713,1018Z" fill="#c4a4a9" stroke="#c4a4a9" stroke-width="1.51"/><path d="M604,88L620,214L739,76Z" fill="#f3ad60" stroke="#f3ad60" stroke-width="1.51"/><path d="M655,-29L739,76L745,-35Z" fill="#e29f60" stroke="#e29f60" stroke-width="1.51"/><path d="M658,-120L655,-29L745,-35Z" fill="#d79459" stroke="#d79459" stroke-width="1.51"/><path d="M658,-120L745,-35L748,-132Z" fill="#d0935d" stroke="#d0935d" stroke-width="1.51"/><path d="M600,532L639,639L755,514Z" fill="#fbe4ca" stroke="#fbe4ca" stroke-width="1.51"/><path d="M639,639L716,777L756,689Z" fill="#ebd8cb" stroke="#ebd8cb" stroke-width="1.51"/><path d="M716,777L665,855L758,879Z" fill="#d8c1c0" stroke="#d8c1c0" stroke-width="1.51"/><path d="M665,855L713,1018L758,879Z" fill="#cab1b6" stroke="#cab1b6" stroke-width="1.51"/><path d="M732,1087L666,1228L748,1183Z" fill="#a37792" stroke="#a37792" stroke-width="1.51"/><path d="M646,1065L666,1228L732,1087Z" fill="#ab7a96" stroke="#ab7a96" stroke-width="1.51"/><path d="M723,440L600,532L755,514Z" fill="#fde5c6" stroke="#fde5c6" stroke-width="1.51"/><path d="M639,639L629,784L716,777Z" fill="#e8cec0" stroke="#e8cec0" stroke-width="1.51"/><path d="M713,1018L646,1065L732,1087Z" fill="#b58ca3" stroke="#b58ca3" stroke-width="1.51"/><path d="M655,-29L604,88L739,76Z" fill="#e8a15b" stroke="#e8a15b" stroke-width="1.51"/><path d="M669,407L600,532L723,440Z" fill="#fedfb8" stroke="#fedfb8" stroke-width="1.51"/><path d="M599,309L669,407L716,310Z" fill="#ffd29a" stroke="#ffd29a" stroke-width="1.51"/><path d="M620,214L599,309L716,310Z" fill="#ffc885" stroke="#ffc885" stroke-width="1.51"/><path d="M629,784L665,855L716,777Z" fill="#dec4bc" stroke="#dec4bc" stroke-width="1.51"/><path d="M177,1191L-14,1230L332,1211Z" fill="#893b43" stroke="#893b43" stroke-width="1.51"/><path d="M615,1001L646,1065L713,1018Z" fill="#ba919f" stroke="#ba919f" stroke-width="1.51"/><path d="M189,-146L288,-122L479,-154Z" fill="#b86719" stroke="#b86719" stroke-width="1.51"/><path d="M528,742L629,784L639,639Z" fill="#ebcbb6" stroke="#ebcbb6" stroke-width="1.51"/><path d="M549,1048L537,1218L646,1065Z" fill="#af7488" stroke="#af7488" stroke-width="1.51"/><path d="M528,-19L655,-29L658,-120Z" fill="#d68e4d" stroke="#d68e4d" stroke-width="1.51"/><path d="M549,872L615,1001L665,855Z" fill="#cea9a5" stroke="#cea9a5" stroke-width="1.51"/><path d="M646,1065L537,1218L666,1228Z" fill="#a46e81" stroke="#a46e81" stroke-width="1.51"/><path d="M544,406L600,532L669,407Z" fill="#ffd9ab" stroke="#ffd9ab" stroke-width="1.51"/><path d="M599,309L544,406L669,407Z" fill="#ffd299" stroke="#ffd299" stroke-width="1.51"/><path d="M519,672L528,742L639,639Z" fill="#f0ceb3" stroke="#f0ceb3" stroke-width="1.51"/><path d="M528,-19L604,88L655,-29Z" fill="#e2964c" stroke="#e2964c" stroke-width="1.51"/><path d="M629,784L549,872L665,855Z" fill="#dab9af" stroke="#dab9af" stroke-width="1.51"/><path d="M479,-154L528,-19L658,-120Z" fill="#cd8541" stroke="#cd8541" stroke-width="1.51"/><path d="M600,532L519,672L639,639Z" fill="#f7d7ba" stroke="#f7d7ba" stroke-width="1.51"/><path d="M615,1001L549,1048L646,1065Z" fill="#ba8a95" stroke="#ba8a95" stroke-width="1.51"/><path d="M604,88L480,205L620,214Z" fill="#f6ae5b" stroke="#f6ae5b" stroke-width="1.51"/><path d="M549,872L479,951L615,1001Z" fill="#c99e97" stroke="#c99e97" stroke-width="1.51"/><path d="M528,742L549,872L629,784Z" fill="#e1bcab" stroke="#e1bcab" stroke-width="1.51"/><path d="M544,406L484,521L600,532Z" fill="#ffd7a8" stroke="#ffd7a8" stroke-width="1.51"/><path d="M484,521L519,672L600,532Z" fill="#fbd7b2" stroke="#fbd7b2" stroke-width="1.51"/><path d="M480,205L599,309L620,214Z" fill="#fdbc6d" stroke="#fdbc6d" stroke-width="1.51"/><path d="M480,205L486,313L599,309Z" fill="#febd6e" stroke="#febd6e" stroke-width="1.51"/><path d="M528,-19L479,70L604,88Z" fill="#e69743" stroke="#e69743" stroke-width="1.51"/><path d="M479,70L480,205L604,88Z" fill="#f1a146" stroke="#f1a146" stroke-width="1.51"/><path d="M479,951L549,1048L615,1001Z" fill="#bf9090" stroke="#bf9090" stroke-width="1.51"/><path d="M486,313L544,406L599,309Z" fill="#ffc885" stroke="#ffc885" stroke-width="1.51"/><path d="M484,521L402,619L519,672Z" fill="#f8cda6" stroke="#f8cda6" stroke-width="1.51"/><path d="M479,-154L419,-21L528,-19Z" fill="#d18133" stroke="#d18133" stroke-width="1.51"/><path d="M392,1176L332,1211L537,1218Z" fill="#9c575d" stroke="#9c575d" stroke-width="1.51"/><path d="M423,1050L392,1176L537,1218Z" fill="#a7626d" stroke="#a7626d" stroke-width="1.51"/><path d="M399,401L484,521L544,406Z" fill="#fecd94" stroke="#fecd94" stroke-width="1.51"/><path d="M528,742L409,833L549,872Z" fill="#dfb29d" stroke="#dfb29d" stroke-width="1.51"/><path d="M409,833L479,951L549,872Z" fill="#d3a392" stroke="#d3a392" stroke-width="1.51"/><path d="M423,1050L537,1218L549,1048Z" fill="#b06f7d" stroke="#b06f7d" stroke-width="1.51"/><path d="M479,951L423,1050L549,1048Z" fill="#bd8584" stroke="#bd8584" stroke-width="1.51"/><path d="M394,-86L419,-21L479,-154Z" fill="#ca7a2c" stroke="#ca7a2c" stroke-width="1.51"/><path d="M402,765L409,833L528,742Z" fill="#e2b398" stroke="#e2b398" stroke-width="1.51"/><path d="M486,313L399,401L544,406Z" fill="#fec682" stroke="#fec682" stroke-width="1.51"/><path d="M449,956L423,1050L479,951Z" fill="#c08a82" stroke="#c08a82" stroke-width="1.51"/><path d="M479,70L400,103L480,205Z" fill="#ee9a3c" stroke="#ee9a3c" stroke-width="1.51"/><path d="M419,-21L479,70L528,-19Z" fill="#de8b36" stroke="#de8b36" stroke-width="1.51"/><path d="M519,672L402,765L528,742Z" fill="#eac0a2" stroke="#eac0a2" stroke-width="1.51"/><path d="M409,833L449,956L479,951Z" fill="#cc998a" stroke="#cc998a" stroke-width="1.51"/><path d="M413,529L402,619L484,521Z" fill="#fbcea2" stroke="#fbcea2" stroke-width="1.51"/><path d="M402,619L402,765L519,672Z" fill="#eec29f" stroke="#eec29f" stroke-width="1.51"/><path d="M288,-122L394,-86L479,-154Z" fill="#c07125" stroke="#c07125" stroke-width="1.51"/><path d="M399,401L413,529L484,521Z" fill="#fccb96" stroke="#fccb96" stroke-width="1.51"/><path d="M371,337L399,401L486,313Z" fill="#fbbc73" stroke="#fbbc73" stroke-width="1.51"/><path d="M480,205L373,244L486,313Z" fill="#fab25b" stroke="#fab25b" stroke-width="1.51"/><path d="M373,244L371,337L486,313Z" fill="#f9b363" stroke="#f9b363" stroke-width="1.51"/><path d="M419,-21L400,103L479,70Z" fill="#e18c31" stroke="#e18c31" stroke-width="1.51"/><path d="M400,103L335,189L480,205Z" fill="#ef9c3e" stroke="#ef9c3e" stroke-width="1.51"/><path d="M335,189L373,244L480,205Z" fill="#f3a44a" stroke="#f3a44a" stroke-width="1.51"/><path d="M262,878L291,992L409,833Z" fill="#c98d7a" stroke="#c98d7a" stroke-width="1.51"/><path d="M325,75L400,103L419,-21Z" fill="#de8729" stroke="#de8729" stroke-width="1.51"/><path d="M291,992L423,1050L449,956Z" fill="#bb7f78" stroke="#bb7f78" stroke-width="1.51"/><path d="M409,833L291,992L449,956Z" fill="#c78f7f" stroke="#c78f7f" stroke-width="1.51"/><path d="M276,449L293,522L399,401Z" fill="#f7bc80" stroke="#f7bc80" stroke-width="1.51"/><path d="M402,619L315,613L402,765Z" fill="#edbc95" stroke="#edbc95" stroke-width="1.51"/><path d="M399,401L293,522L413,529Z" fill="#f9c38d" stroke="#f9c38d" stroke-width="1.51"/><path d="M315,613L402,619L413,529Z" fill="#f5c499" stroke="#f5c499" stroke-width="1.51"/><path d="M290,1L325,75L419,-21Z" fill="#d77d21" stroke="#d77d21" stroke-width="1.51"/><path d="M291,992L321,1054L423,1050Z" fill="#b5716f" stroke="#b5716f" stroke-width="1.51"/><path d="M321,1054L392,1176L423,1050Z" fill="#ad646d" stroke="#ad646d" stroke-width="1.51"/><path d="M394,-86L290,1L419,-21Z" fill="#cf7822" stroke="#cf7822" stroke-width="1.51"/><path d="M315,613L275,799L402,765Z" fill="#e5ae8c" stroke="#e5ae8c" stroke-width="1.51"/><path d="M402,765L275,799L409,833Z" fill="#dca68b" stroke="#dca68b" stroke-width="1.51"/><path d="M293,522L315,613L413,529Z" fill="#f7c394" stroke="#f7c394" stroke-width="1.51"/><path d="M275,799L262,878L409,833Z" fill="#d49a81" stroke="#d49a81" stroke-width="1.51"/><path d="M-18,-149L88,-130L189,-146Z" fill="#a45109" stroke="#a45109" stroke-width="1.51"/><path d="M321,1054L332,1211L392,1176Z" fill="#a25660" stroke="#a25660" stroke-width="1.51"/><path d="M325,75L335,189L400,103Z" fill="#e88e2a" stroke="#e88e2a" stroke-width="1.51"/><path d="M371,337L276,449L399,401Z" fill="#f8ba76" stroke="#f8ba76" stroke-width="1.51"/><path d="M288,-122L290,1L394,-86Z" fill="#c66f1a" stroke="#c66f1a" stroke-width="1.51"/><path d="M260,306L276,449L371,337Z" fill="#f5b066" stroke="#f5b066" stroke-width="1.51"/><path d="M260,306L371,337L373,244Z" fill="#f5ab56" stroke="#f5ab56" stroke-width="1.51"/><path d="M335,189L260,306L373,244Z" fill="#f2a246" stroke="#f2a246" stroke-width="1.51"/><path d="M260,306L196,358L276,449Z" fill="#f0ab62" stroke="#f0ab62" stroke-width="1.51"/><path d="M179,610L275,799L315,613Z" fill="#e7ad85" stroke="#e7ad85" stroke-width="1.51"/><path d="M180,1067L177,1191L321,1054Z" fill="#a2505b" stroke="#a2505b" stroke-width="1.51"/><path d="M321,1054L177,1191L332,1211Z" fill="#9d4d55" stroke="#9d4d55" stroke-width="1.51"/><path d="M196,177L260,306L335,189Z" fill="#eb9737" stroke="#eb9737" stroke-width="1.51"/><path d="M325,75L200,95L335,189Z" fill="#e3861c" stroke="#e3861c" stroke-width="1.51"/><path d="M200,95L196,177L335,189Z" fill="#e28823" stroke="#e28823" stroke-width="1.51"/><path d="M179,610L184,801L275,799Z" fill="#db9f7f" stroke="#db9f7f" stroke-width="1.51"/><path d="M293,522L207,566L315,613Z" fill="#f3b98a" stroke="#f3b98a" stroke-width="1.51"/><path d="M290,1L200,95L325,75Z" fill="#d87a13" stroke="#d87a13" stroke-width="1.51"/><path d="M288,-122L199,-3L290,1Z" fill="#c76b0c" stroke="#c76b0c" stroke-width="1.51"/><path d="M291,992L180,1067L321,1054Z" fill="#b06663" stroke="#b06663" stroke-width="1.51"/><path d="M207,566L179,610L315,613Z" fill="#ecb387" stroke="#ecb387" stroke-width="1.51"/><path d="M196,358L179,405L276,449Z" fill="#efac6a" stroke="#efac6a" stroke-width="1.51"/><path d="M189,-146L199,-3L288,-122Z" fill="#ba630c" stroke="#ba630c" stroke-width="1.51"/><path d="M199,-3L200,95L290,1Z" fill="#d0720f" stroke="#d0720f" stroke-width="1.51"/><path d="M262,878L180,1009L291,992Z" fill="#ba7a6a" stroke="#ba7a6a" stroke-width="1.51"/><path d="M180,1009L180,1067L291,992Z" fill="#ad6663" stroke="#ad6663" stroke-width="1.51"/><path d="M276,449L207,566L293,522Z" fill="#f4b883" stroke="#f4b883" stroke-width="1.51"/><path d="M109,946L180,1009L262,878Z" fill="#b7776a" stroke="#b7776a" stroke-width="1.51"/><path d="M184,801L262,878L275,799Z" fill="#d2947a" stroke="#d2947a" stroke-width="1.51"/><path d="M179,405L207,566L276,449Z" fill="#f0b27a" stroke="#f0b27a" stroke-width="1.51"/><path d="M196,177L91,314L196,358Z" fill="#e69745" stroke="#e69745" stroke-width="1.51"/><path d="M196,177L196,358L260,306Z" fill="#eb9c46" stroke="#eb9c46" stroke-width="1.51"/><path d="M162,839L109,946L262,878Z" fill="#c08270" stroke="#c08270" stroke-width="1.51"/><path d="M184,801L162,839L262,878Z" fill="#cb8e76" stroke="#cb8e76" stroke-width="1.51"/><path d="M105,867L109,946L162,839Z" fill="#bc7e6e" stroke="#bc7e6e" stroke-width="1.51"/><path d="M58,1173L-14,1230L177,1191Z" fill="#833542" stroke="#833542" stroke-width="1.51"/><path d="M50,611L102,794L179,610Z" fill="#d9a07f" stroke="#d9a07f" stroke-width="1.51"/><path d="M58,1173L177,1191L180,1067Z" fill="#934150" stroke="#934150" stroke-width="1.51"/><path d="M179,610L102,794L184,801Z" fill="#d59a7d" stroke="#d59a7d" stroke-width="1.51"/><path d="M77,194L91,314L196,177Z" fill="#de8a34" stroke="#de8a34" stroke-width="1.51"/><path d="M189,-146L88,-130L199,-3Z" fill="#b35c0a" stroke="#b35c0a" stroke-width="1.51"/><path d="M88,-130L49,-10L199,-3Z" fill="#b75d08" stroke="#b75d08" stroke-width="1.51"/><path d="M77,194L196,177L200,95Z" fill="#db8021" stroke="#db8021" stroke-width="1.51"/><path d="M199,-3L65,69L200,95Z" fill="#cc6f0d" stroke="#cc6f0d" stroke-width="1.51"/><path d="M63,578L179,610L207,566Z" fill="#e5ac83" stroke="#e5ac83" stroke-width="1.51"/><path d="M105,432L63,578L207,566Z" fill="#e7ad81" stroke="#e7ad81" stroke-width="1.51"/><path d="M179,405L105,432L207,566Z" fill="#ebac76" stroke="#ebac76" stroke-width="1.51"/><path d="M67,1067L58,1173L180,1067Z" fill="#964656" stroke="#964656" stroke-width="1.51"/><path d="M49,-10L65,69L199,-3Z" fill="#c1650b" stroke="#c1650b" stroke-width="1.51"/><path d="M65,69L77,194L200,95Z" fill="#d27513" stroke="#d27513" stroke-width="1.51"/><path d="M91,314L179,405L196,358Z" fill="#e8a15b" stroke="#e8a15b" stroke-width="1.51"/><path d="M91,314L105,432L179,405Z" fill="#e5a161" stroke="#e5a161" stroke-width="1.51"/><path d="M180,1009L67,1067L180,1067Z" fill="#a3595d" stroke="#a3595d" stroke-width="1.51"/><path d="M102,794L162,839L184,801Z" fill="#cb8e77" stroke="#cb8e77" stroke-width="1.51"/><path d="M109,946L67,1067L180,1009Z" fill="#a76260" stroke="#a76260" stroke-width="1.51"/><path d="M63,578L50,611L179,610Z" fill="#dfa681" stroke="#dfa681" stroke-width="1.51"/><path d="M50,611L3,642L102,794Z" fill="#d2997c" stroke="#d2997c" stroke-width="1.51"/><path d="M102,794L105,867L162,839Z" fill="#c58874" stroke="#c58874" stroke-width="1.51"/><path d="M-12,942L11,1064L67,1067Z" fill="#9b555b" stroke="#9b555b" stroke-width="1.51"/><path d="M-16,189L2,339L77,194Z" fill="#d68434" stroke="#d68434" stroke-width="1.51"/><path d="M77,194L2,339L91,314Z" fill="#dc8d41" stroke="#dc8d41" stroke-width="1.51"/><path d="M3,642L-43,730L102,794Z" fill="#ca9078" stroke="#ca9078" stroke-width="1.51"/><path d="M102,794L-65,884L105,867Z" fill="#bb7e6f" stroke="#bb7e6f" stroke-width="1.51"/><path d="M-5,517L63,578L105,432Z" fill="#e1a57a" stroke="#e1a57a" stroke-width="1.51"/><path d="M91,314L2,339L105,432Z" fill="#df9959" stroke="#df9959" stroke-width="1.51"/><path d="M2,339L-8,392L105,432Z" fill="#dc995f" stroke="#dc995f" stroke-width="1.51"/><path d="M105,867L-12,942L109,946Z" fill="#b17268" stroke="#b17268" stroke-width="1.51"/><path d="M-12,942L67,1067L109,946Z" fill="#a46260" stroke="#a46260" stroke-width="1.51"/><path d="M65,69L-16,189L77,194Z" fill="#ce751b" stroke="#ce751b" stroke-width="1.51"/><path d="M-65,884L-12,942L105,867Z" fill="#ae7168" stroke="#ae7168" stroke-width="1.51"/><path d="M-8,392L-5,517L105,432Z" fill="#dd9e6c" stroke="#dd9e6c" stroke-width="1.51"/><path d="M-18,-149L49,-10L88,-130Z" fill="#a75207" stroke="#a75207" stroke-width="1.51"/><path d="M-43,730L-65,884L102,794Z" fill="#bc8272" stroke="#bc8272" stroke-width="1.51"/><path d="M-54,117L-16,189L65,69Z" fill="#c66d13" stroke="#c66d13" stroke-width="1.51"/><path d="M11,1064L58,1173L67,1067Z" fill="#924154" stroke="#924154" stroke-width="1.51"/><path d="M-18,-149L-11,3L49,-10Z" fill="#ac5407" stroke="#ac5407" stroke-width="1.51"/><path d="M49,-10L-11,3L65,69Z" fill="#bb5f08" stroke="#bb5f08" stroke-width="1.51"/><path d="M-11,3L-54,117L65,69Z" fill="#be630b" stroke="#be630b" stroke-width="1.51"/><path d="M11,1064L-14,1230L58,1173Z" fill="#853649" stroke="#853649" stroke-width="1.51"/><path d="M-5,517L50,611L63,578Z" fill="#dca37f" stroke="#dca37f" stroke-width="1.51"/><path d="M-5,517L3,642L50,611Z" fill="#d79f7e" stroke="#d79f7e" stroke-width="1.51"/><path d="M-135,1106L-14,1230L11,1064Z" fill="#82354c" stroke="#82354c" stroke-width="1.51"/><path d="M-18,-149L-119,-15L-11,3Z" fill="#a55007" stroke="#a55007" stroke-width="1.51"/><path d="M-8,392L-115,435L-5,517Z" fill="#d4996b" stroke="#d4996b" stroke-width="1.51"/><path d="M-16,189L-101,342L2,339Z" fill="#d18741" stroke="#d18741" stroke-width="1.51"/><path d="M-5,517L-102,656L3,642Z" fill="#d09a7c" stroke="#d09a7c" stroke-width="1.51"/><path d="M-102,656L-43,730L3,642Z" fill="#c7927a" stroke="#c7927a" stroke-width="1.51"/><path d="M-12,942L-134,985L11,1064Z" fill="#97585c" stroke="#97585c" stroke-width="1.51"/><path d="M-134,985L-135,1106L11,1064Z" fill="#8a4655" stroke="#8a4655" stroke-width="1.51"/><path d="M-125,745L-65,884L-43,730Z" fill="#b57f71" stroke="#b57f71" stroke-width="1.51"/><path d="M-122,173L-101,342L-16,189Z" fill="#c97c32" stroke="#c97c32" stroke-width="1.51"/><path d="M-135,1106L-147,1226L-14,1230Z" fill="#722b40" stroke="#722b40" stroke-width="1.51"/><path d="M-124,92L-54,117L-11,3Z" fill="#b7600b" stroke="#b7600b" stroke-width="1.51"/><path d="M-174,564L-102,656L-5,517Z" fill="#cb987c" stroke="#cb987c" stroke-width="1.51"/><path d="M-101,342L-8,392L2,339Z" fill="#d39155" stroke="#d39155" stroke-width="1.51"/><path d="M-177,-140L-119,-15L-18,-149Z" fill="#964808" stroke="#964808" stroke-width="1.51"/><path d="M-119,-15L-124,92L-11,3Z" fill="#ae590a" stroke="#ae590a" stroke-width="1.51"/><path d="M-115,435L-174,564L-5,517Z" fill="#ce9976" stroke="#ce9976" stroke-width="1.51"/><path d="M-101,342L-115,435L-8,392Z" fill="#cf925d" stroke="#cf925d" stroke-width="1.51"/><path d="M-65,884L-134,985L-12,942Z" fill="#9e6461" stroke="#9e6461" stroke-width="1.51"/><path d="M-54,117L-122,173L-16,189Z" fill="#c36f1e" stroke="#c36f1e" stroke-width="1.51"/><path d="M-125,745L-162,859L-65,884Z" fill="#ab766d" stroke="#ab766d" stroke-width="1.51"/><path d="M-102,656L-125,745L-43,730Z" fill="#bd8b76" stroke="#bd8b76" stroke-width="1.51"/><path d="M-124,92L-122,173L-54,117Z" fill="#bb6714" stroke="#bb6714" stroke-width="1.51"/><path d="M-162,859L-134,985L-65,884Z" fill="#9c6664" stroke="#9c6664" stroke-width="1.51"/><path d="M-174,564L-125,745L-102,656Z" fill="#be8f78" stroke="#be8f78" stroke-width="1.51"/><path d="M-174,564L-115,435L-101,342Z" fill="#c99369" stroke="#c99369" stroke-width="1.51"/><path d="M-122,173L-174,564L-101,342Z" fill="#c88a53" stroke="#c88a53" stroke-width="1.51"/><path d="M-177,-140L-124,92L-119,-15Z" fill="#a04e08" stroke="#a04e08" stroke-width="1.51"/><path d="M-124,92L-177,-140L-122,173Z" fill="#aa570b" stroke="#aa570b" stroke-width="1.51"/><path d="M-177,-140L-174,564L-122,173Z" fill="#bc7028" stroke="#bc7028" stroke-width="1.51"/><path d="M-174,564L-162,859L-125,745Z" fill="#b48474" stroke="#b48474" stroke-width="1.51"/><path d="M-162,859L-135,1106L-134,985Z" fill="#8d555b" stroke="#8d555b" stroke-width="1.51"/><path d="M-162,859L-147,1226L-135,1106Z" fill="#813f52" stroke="#813f52" stroke-width="1.51"/></svg>